<mxfile host="app.diagrams.net" modified="2022-03-30T21:23:59.036Z" agent="5.0 (Windows NT 10.0; Win64; x64) AppleWebKit/537.36 (KHTML, like Gecko) Chrome/99.0.4844.84 Safari/537.36" etag="PX0He52w8Q7FI3IC4gI9" version="17.1.4" type="github">
  <diagram id="SVmGmWAFOM5Arqu3T0cO" name="Page-1">
    <mxGraphModel dx="731" dy="410" grid="1" gridSize="10" guides="1" tooltips="1" connect="1" arrows="1" fold="1" page="1" pageScale="1" pageWidth="827" pageHeight="1169" background="#CDA2BE" math="0" shadow="0">
      <root>
        <mxCell id="0" />
        <mxCell id="1" parent="0" />
        <mxCell id="zMvloheh5RPTCIvXuxh1-1" value="class yin" style="swimlane;startSize=60;" vertex="1" parent="1">
          <mxGeometry x="80" y="120" width="190" height="160" as="geometry" />
        </mxCell>
        <mxCell id="zMvloheh5RPTCIvXuxh1-2" value="pass" style="text;html=1;align=center;verticalAlign=middle;resizable=0;points=[];autosize=1;strokeColor=none;fillColor=none;" vertex="1" parent="zMvloheh5RPTCIvXuxh1-1">
          <mxGeometry x="70" y="110" width="40" height="20" as="geometry" />
        </mxCell>
        <mxCell id="zMvloheh5RPTCIvXuxh1-3" value="class yang" style="swimlane;startSize=60;" vertex="1" parent="1">
          <mxGeometry x="300" y="120" width="190" height="160" as="geometry" />
        </mxCell>
        <mxCell id="zMvloheh5RPTCIvXuxh1-4" value="&lt;br&gt;__del__()&lt;br&gt;&lt;br&gt;yang destruido" style="text;html=1;align=center;verticalAlign=middle;resizable=0;points=[];autosize=1;strokeColor=none;fillColor=none;" vertex="1" parent="zMvloheh5RPTCIvXuxh1-3">
          <mxGeometry x="45" y="70" width="90" height="60" as="geometry" />
        </mxCell>
      </root>
    </mxGraphModel>
  </diagram>
</mxfile>
